PathFileType	4	(X/Y/Z)	..\data\2014015\dynamic\2014015_C5_03.trc
DataRate	CameraRate	NumFrames	NumMarkers	Units	OrigDataRate	OrigDataStartFrame	OrigNumFrames
100.000000	100.000000	4	52	mm	100.000000	142	163
Frame#	Time	L_IAS			L_IPS			R_IPS			R_IAS			L_FTC			L_FLE			L_FME			L_FAX			L_TTC			L_FAL			L_TAM			L_FCC			L_FM1			L_FM2			L_FM5			R_FTC			R_FLE			R_FME			R_FAX			R_TTC			R_FAL			R_TAM			R_FCC			R_FM1			R_FM2			R_FM5			CV7			TV10			SXS			SJN			L_SIA			L_SRS			L_SAA			L_SAE			L_HLE			L_HME			L_UOA			L_RSP			L_UHE			L_HM2			L_HM5			R_SIA			R_SRS			R_SAA			R_SAE			R_HLE			R_HME			R_UOA			R_RSP			R_UHE			R_HM2			R_HM5			
		X1	Y1	Z1	X2	Y2	Z2	X3	Y3	Z3	X4	Y4	Z4	X5	Y5	Z5	X6	Y6	Z6	X7	Y7	Z7	X8	Y8	Z8	X9	Y9	Z9	X10	Y10	Z10	X11	Y11	Z11	X12	Y12	Z12	X13	Y13	Z13	X14	Y14	Z14	X15	Y15	Z15	X16	Y16	Z16	X17	Y17	Z17	X18	Y18	Z18	X19	Y19	Z19	X20	Y20	Z20	X21	Y21	Z21	X22	Y22	Z22	X23	Y23	Z23	X24	Y24	Z24	X25	Y25	Z25	X26	Y26	Z26	X27	Y27	Z27	X28	Y28	Z28	X29	Y29	Z29	X30	Y30	Z30	X31	Y31	Z31	X32	Y32	Z32	X33	Y33	Z33	X34	Y34	Z34	X35	Y35	Z35	X36	Y36	Z36	X37	Y37	Z37	X38	Y38	Z38	X39	Y39	Z39	X40	Y40	Z40	X41	Y41	Z41	X42	Y42	Z42	X43	Y43	Z43	X44	Y44	Z44	X45	Y45	Z45	X46	Y46	Z46	X47	Y47	Z47	X48	Y48	Z48	X49	Y49	Z49	X50	Y50	Z50	X51	Y51	Z51	X52	Y52	Z52	

143	1.42	632.5022583007814	835.315856933594	141.7308197021486	413.6303710937501	870.2539672851565	213.3985595703126	409.9997863769532	875.1986083984377	313.7730712890626	629.0662841796876	830.189147949219	401.3887634277345	563.8168334960939	760.5303955078126	78.07113647460946	696.1375732421876	434.9439392089845	122.217140197754	716.0897216796876	430.2281494140626	263.238494873047	683.8007202148439	378.0183715820313	120.6704864501954	749.4282226562501	388.5233154296876	164.4767608642579	651.1867065429689	81.19045257568361	157.6979217529298	684.6934204101564	95.52017211914064	239.6424865722658	616.6672363281251	43.05553817749024	204.6175537109376	797.5900878906252	37.90376281738282	228.8223876953126	801.669616699219	52.44589614868165	177.779266357422	762.8438720703126	34.54132461547852	129.0664215087892	543.2865600585939	746.5888061523439	448.2176513671877	474.9214782714844	410.030731201172	366.8497009277345	512.6749267578126	392.8448486328126	235.2245635986329	464.6528625488282	355.6944274902344	363.9373168945314	522.4093017578126	347.0201110839844	308.7756347656251	372.926513671875	58.87801361083986	304.7503051757814	409.5455017089845	82.7866897583008	221.6250915527345	333.308349609375	29.21808433532716	254.495574951172	511.363739013672	20.5591106414795	220.4856414794923	528.5104980468751	30.12700462341309	277.3565063476564	473.0980834960938	21.13071632385254	328.0012512207032	482.9828186035157	1312.283325195313	278.1350708007814	415.3381347656251	1122.39453125	274.317840576172	661.0981445312501	1027.633422851563	259.705291748047	608.2656250000001	1242.834228515625	266.9351196289064	409.3794250488282	1150.464233398438	204.3309936523439	447.1196594238282	1270.321533203125	204.6020355224611	478.840545654297	1279.727661132813	140.1375885009766	534.7738037109376	1268.70166015625	94.68846130371102	475.3638000488282	1003.835876464844	38.1142539978028	453.4377746582032	988.3652954101565	124.5676345825196	439.8696594238282	985.8244628906252	76.75524902343757	532.8736572265626	791.417175292969	52.54027938842781	466.967254638672	794.262390136719	11.01448345184332	549.0953979492189	699.5895996093751	35.66073608398445	457.4194335937501	714.6073608398439	8.587245941162168	421.3353881835938	1146.21240234375	375.0957336425782	463.3154602050782	1267.03369140625	364.2008361816407	495.6398010253907	1270.733276367188	420.4614562988283	574.1725463867189	1265.005126953125	445.5768432617189	563.0604858398438	991.5621337890627	520.1352539062502	503.7997741699219	982.6821289062502	438.9725646972658	514.3568115234375	971.0224609375002	494.0772705078127	657.15283203125	802.877136230469	468.4671325683595	612.9117431640625	784.427185058594	530.273132324219	704.120849609375	719.8372802734376	479.025085449219	616.2745971679688	712.5736083984376	530.5286865234377	
144	1.43	645.5829467773439	833.1136474609377	142.1934509277345	426.1922912597657	867.696960449219	211.2159271240236	421.2315979003907	873.0542602539065	311.6136474609376	639.5775146484376	827.3950805664065	402.0954589843752	578.6465454101564	758.6838989257814	77.49023437500009	706.6067504882814	431.763885498047	125.0969238281251	725.9755249023439	427.175018310547	266.5399475097658	697.1203613281251	374.5023803710938	123.8008117675782	762.4481201171876	387.839080810547	167.2183990478517	686.9910888671876	75.74923706054689	159.7466888427736	719.7407836914064	92.12010192871095	241.3765411376955	655.3352050781251	35.64086914062501	207.2041473388673	836.155944824219	42.82656860351563	229.9442749023439	839.1357421875002	57.32299041748048	178.8380126953126	801.2869873046877	36.52221298217774	130.3944854736329	552.9756469726564	744.6164550781251	447.7493896484377	479.7387695312501	409.4388122558595	366.1242065429689	517.6477661132814	391.527313232422	234.7486114501954	469.0669860839844	355.2819519042969	363.3960266113282	526.6281127929689	345.6798706054688	308.2043762207032	373.4679870605469	59.53169631958009	304.3135986328126	409.8396911621095	82.83216094970705	221.0574188232423	333.4206848144531	30.38848876953126	254.0609283447266	511.4073181152345	20.31684494018555	220.3253479003907	528.3695068359376	29.96677207946778	277.2590637207032	472.8003234863282	21.18742752075196	327.6958923339845	495.1601257324219	1310.150146484375	278.9706420898439	427.3166198730469	1120.367553710938	275.0206604003907	672.4897460937501	1025.138061523438	260.0299682617189	620.5085449218751	1240.605102539063	267.2700805664064	421.1570129394532	1148.279541015625	205.3697967529298	458.9648437500001	1268.136352539063	205.6412658691407	490.351776123047	1277.4638671875	141.0477142333985	545.9561157226564	1266.418212890625	95.29041290283212	485.8118591308595	1001.616516113281	39.05569839477545	464.7489624023439	986.0020751953127	125.7044143676759	450.5122070312501	983.717956542969	78.14028167724616	542.7229614257814	788.988464355469	52.37493515014656	476.1626281738282	792.2656250000002	11.73527622222906	558.2749633789064	697.1010742187501	34.45520019531258	466.3829345703126	712.8066406250001	8.610206604003965	433.7531127929688	1144.359985351563	376.0331115722657	475.9345092773438	1265.107788085938	365.1350402832032	508.4853515625001	1268.762329101563	421.2227172851564	587.1940917968751	1262.994506835938	445.8958129882814	577.5377807617188	989.6841430664065	520.5561523437502	517.4757690429689	980.3979492187502	440.003875732422	528.7653198242188	968.798034667969	494.8420410156252	672.2584838867188	801.6004638671877	468.0086975097658	628.821533203125	782.926208496094	530.2480468750002	719.6435546875	718.7576293945314	477.9839477539065	632.479736328125	711.1240844726564	530.570007324219	
145	1.44	658.6279296875001	830.8267211914065	142.3160400390626	438.8984680175782	865.0775146484377	209.132537841797	432.5911560058594	870.7217407226565	309.5027465820314	650.1394042968751	824.514587402344	402.7492980957033	593.3795166015626	756.6102905273439	76.91530609130868	716.5574951171876	428.2362365722657	127.9382858276368	735.3737182617189	423.749969482422	269.9309692382814	709.9697875976564	370.8881225585938	126.9046707153321	775.0534667968752	386.9964904785157	169.9161987304689	721.9490966796876	71.75492095947267	162.0298309326173	753.9274902343751	90.05265045166017	243.2321166992189	693.2210693359376	29.85760879516602	210.0542144775392	873.2619628906252	48.97910308837892	231.2312774658205	875.170349121094	63.30991744995119	180.0298156738283	838.3419189453127	39.63049316406251	131.9128723144533	562.7723388671876	742.5479736328126	447.2927246093752	484.8414001464844	408.8484802246095	365.5303955078126	522.9930419921876	390.2000732421876	234.4069671630861	473.8052368164063	354.8668823242188	363.0096740722657	531.1466064453126	344.3088073730469	307.7932128906251	374.0171508789062	60.35946655273439	304.0883178710939	410.1399230957032	83.05027770996095	220.693084716797	333.4685363769531	31.79473114013673	253.8995361328126	511.3819885253907	20.13417625427246	220.2087402343751	528.2030029296876	29.82196426391602	277.1766357421876	472.5379028320313	21.26286315917969	327.4759521484376	507.3463745117188	1307.859497070313	279.7889099121095	439.3217163085938	1118.169921875	275.674285888672	683.9497680664064	1022.5283203125	260.3087463378907	632.8156127929689	1238.217529296875	267.5811462402345	432.9777832031251	1145.897583007813	206.3888549804689	470.8123168945314	1265.778930664063	206.6726379394532	501.8388977050782	1275.046997070313	141.9523468017579	557.0800781250001	1264.00830078125	95.88012695312509	496.4011840820314	999.2626953125002	39.94233322143562	476.199188232422	983.4307861328127	126.7692642211915	461.3035583496095	981.4089355468752	79.45372009277351	552.8117675781251	786.4483032226565	52.17082214355477	485.6648254394532	790.1290283203127	12.30793285369879	567.7380981445314	694.5365600585939	33.31405639648445	475.695770263672	710.8686523437501	8.507994651794494	446.1801147460938	1142.340942382813	376.9595642089845	488.5577697753907	1263.0341796875	366.037811279297	521.3268432617189	1266.632690429688	421.9471435546877	600.2227172851564	1260.820678710938	446.1775207519533	592.02197265625	987.650817871094	520.898376464844	531.2037963867189	977.9468383789065	440.9267578125002	543.1516723632812	966.448669433594	495.5291748046877	687.2276000976562	800.075866699219	467.5769348144533	644.5881958007812	781.258239746094	530.2429809570315	735.0211181640625	717.4384765625001	477.0855712890627	648.52685546875	709.5308837890626	530.7173461914065	
146	1.45	671.6438598632814	828.4937744140627	142.1449584960939	451.733612060547	862.4625244140627	207.1939086914064	444.0973510742188	868.2603149414065	307.4745483398439	660.7932128906251	821.6040649414065	403.3360595703127	607.9563598632814	754.3495483398439	76.36899566650399	726.1946411132814	424.4800415039064	130.7275848388673	744.3935546875001	420.1264953613282	273.3835754394533	722.4973754882814	367.2682495117188	129.9632415771486	787.364440917969	386.0760803222657	172.6060485839845	755.7097167968751	69.10296630859376	164.521697998047	786.916198730469	89.21128845214845	245.2185058593751	729.9027709960939	25.61502647399903	213.1219024658205	908.6021728515627	56.10340118408205	232.6835327148439	909.4877929687502	70.16827392578126	181.3572692871095	873.7061157226565	43.67133712768555	133.6301574707033	572.7045898437501	740.4508666992189	446.8602905273439	490.2719421386719	408.2778930664064	365.0973510742189	528.7593383789064	388.8819580078126	234.2216339111329	478.9021606445313	354.4634399414063	362.7990112304689	536.0000000000001	342.9189758300782	307.5632934570314	374.5761108398438	61.40974426269533	304.086395263672	410.472625732422	83.50235748291017	220.5483245849611	333.45361328125	33.47981643676759	254.0167541503907	511.3029174804689	20.01217460632325	220.1507415771486	528.0404663085939	29.70083618164063	277.124237060547	472.3401794433594	21.36160278320313	327.3582153320314	519.5518798828126	1305.447509765625	280.5736083984376	451.3704833984376	1115.837036132813	276.2657165527345	695.5170288085939	1019.850769042969	260.5366821289064	645.1956176757814	1235.705810546875	267.8618164062501	444.8606262207032	1143.357421875	207.3697814941407	482.6824951171876	1263.28515625	207.6730957031251	513.3296508789064	1272.513061523438	142.8332977294923	568.1797485351564	1261.503662109375	96.44550323486338	507.1457519531251	996.8042602539065	40.76678466796882	487.8064270019532	980.6898193359377	127.7579803466798	472.2711486816407	978.9265747070315	80.68598175048835	563.1461181640626	783.8260498046877	51.92393112182626	495.4739074707032	787.8772583007815	12.74059009552008	577.4877929687501	691.9211425781251	32.24063873291023	485.349578857422	708.8173217773439	8.301780700683654	458.6164550781251	1140.190673828125	377.8615112304689	501.1889953613282	1260.84765625	366.8934936523439	534.1651611328126	1264.377319335938	422.6222534179689	613.2526245117189	1258.51513671875	446.4177551269533	606.4744873046875	985.488952636719	521.1610107421877	544.9744873046876	975.3609619140627	441.7202148437502	557.4820556640625	964.0028076171877	496.1295471191408	702.0621948242188	798.3385009765627	467.1816101074221	660.18115234375	779.4431152343752	530.2515869140627	750.24658203125	715.9071044921876	476.342956542969	664.384765625	707.8127441406251	530.9467773437502	
